<?xml version="1.0" encoding="UTF-8" standalone="no"?><svg xmlns="http://www.w3.org/2000/svg" xmlns:xlink="http://www.w3.org/1999/xlink" contentScriptType="application/ecmascript" contentStyleType="text/css" height="556px" preserveAspectRatio="none" style="width:1004px;height:556px;" version="1.1" viewBox="0 0 1004 556" width="1004px" zoomAndPan="magnify"><defs><filter height="300%" id="foena2q" width="300%" x="-1" y="-1"><feGaussianBlur result="blurOut" stdDeviation="2.0"/><feColorMatrix in="blurOut" result="blurOut2" type="matrix" values="0 0 0 0 0 0 0 0 0 0 0 0 0 0 0 0 0 0 .4 0"/><feOffset dx="4.0" dy="4.0" in="blurOut2" result="blurOut3"/><feBlend in="SourceGraphic" in2="blurOut3" mode="normal"/></filter></defs><g><!--cluster healing-db--><rect fill="#FFFFFF" filter="url(#foena2q)" height="525" style="stroke: #000000; stroke-width: 2.0;" width="750" x="247" y="24"/><text fill="#000000" font-family="sans-serif" font-size="14" font-weight="bold" lengthAdjust="spacingAndGlyphs" textLength="83" x="580.5" y="38.9951">healing-db</text><ellipse cx="467.6152" cy="224.123" fill="#FEFECE" filter="url(#foena2q)" rx="153.6152" ry="33.123" style="stroke: #A80036; stroke-width: 1.5;"/><text fill="#000000" font-family="sans-serif" font-size="14" lengthAdjust="spacingAndGlyphs" textLength="290" x="322.6152" y="228.7715">Heilung mit einer Erkrankung verknuepfen</text><ellipse cx="467.6586" cy="335.8317" fill="#FEFECE" filter="url(#foena2q)" rx="204.6586" ry="43.3317" style="stroke: #A80036; stroke-width: 1.5;"/><text fill="#000000" font-family="sans-serif" font-size="14" lengthAdjust="spacingAndGlyphs" textLength="395" x="270.1586" y="340.4802">Freitext zu einer Heilung oder einer Erkrankung eingeben</text><ellipse cx="467.5624" cy="433.0125" fill="#FEFECE" filter="url(#foena2q)" rx="80.5624" ry="18.5125" style="stroke: #A80036; stroke-width: 1.5;"/><text fill="#000000" font-family="sans-serif" font-size="14" lengthAdjust="spacingAndGlyphs" textLength="132" x="401.5624" y="437.6609">Freitext diskutieren</text><ellipse cx="467.5751" cy="510.215" fill="#FEFECE" filter="url(#foena2q)" rx="104.0751" ry="23.215" style="stroke: #A80036; stroke-width: 1.5;"/><text fill="#000000" font-family="sans-serif" font-size="14" lengthAdjust="spacingAndGlyphs" textLength="185" x="375.0751" y="514.8635">Verknuepfung bestaetigen</text><ellipse cx="880.1576" cy="502.9315" fill="#FEFECE" filter="url(#foena2q)" rx="72.6576" ry="16.9315" style="stroke: #A80036; stroke-width: 1.5;"/><text fill="#000000" font-family="sans-serif" font-size="14" lengthAdjust="spacingAndGlyphs" textLength="113" x="823.6576" y="507.5799">user aufwehrten</text><ellipse cx="879.8822" cy="428.0764" fill="#FEFECE" filter="url(#foena2q)" rx="100.8822" ry="22.5764" style="stroke: #A80036; stroke-width: 1.5;"/><text fill="#000000" font-family="sans-serif" font-size="14" lengthAdjust="spacingAndGlyphs" textLength="178" x="790.8822" y="432.7249">verknuepfung aufwehrten</text><ellipse cx="467.56" cy="75.212" fill="#FEFECE" filter="url(#foena2q)" rx="69.06" ry="16.212" style="stroke: #A80036; stroke-width: 1.5;"/><text fill="#000000" font-family="sans-serif" font-size="14" lengthAdjust="spacingAndGlyphs" textLength="104" x="415.56" y="79.8604">inhalte sperren</text><ellipse cx="467.3339" cy="141.0668" fill="#FEFECE" filter="url(#foena2q)" rx="63.3339" ry="15.0668" style="stroke: #A80036; stroke-width: 1.5;"/><text fill="#000000" font-family="sans-serif" font-size="14" lengthAdjust="spacingAndGlyphs" textLength="89" x="422.8339" y="145.7152">user sperren</text><!--entity user--><ellipse cx="184.5" cy="220.5" fill="#FEFECE" filter="url(#foena2q)" rx="8" ry="8" style="stroke: #A80036; stroke-width: 2.0;"/><path d="M184.5,228.5 L184.5,255.5 M171.5,236.5 L197.5,236.5 M184.5,255.5 L171.5,270.5 M184.5,255.5 L197.5,270.5 " fill="#FEFECE" filter="url(#foena2q)" style="stroke: #A80036; stroke-width: 2.0;"/><text fill="#000000" font-family="sans-serif" font-size="14" lengthAdjust="spacingAndGlyphs" textLength="31" x="169" y="290.4951">user</text><!--entity admin--><ellipse cx="57" cy="114.5" fill="#FEFECE" filter="url(#foena2q)" rx="8" ry="8" style="stroke: #A80036; stroke-width: 2.0;"/><path d="M57,122.5 L57,149.5 M44,130.5 L70,130.5 M57,149.5 L44,164.5 M57,149.5 L70,164.5 " fill="#FEFECE" filter="url(#foena2q)" style="stroke: #A80036; stroke-width: 2.0;"/><text fill="#000000" font-family="sans-serif" font-size="14" lengthAdjust="spacingAndGlyphs" textLength="42" x="36" y="184.4951">admin</text><!--entity pro--><ellipse cx="57" cy="258.5" fill="#FEFECE" filter="url(#foena2q)" rx="8" ry="8" style="stroke: #A80036; stroke-width: 2.0;"/><path d="M57,266.5 L57,293.5 M44,274.5 L70,274.5 M57,293.5 L44,308.5 M57,293.5 L70,308.5 " fill="#FEFECE" filter="url(#foena2q)" style="stroke: #A80036; stroke-width: 2.0;"/><text fill="#000000" font-family="sans-serif" font-size="14" lengthAdjust="spacingAndGlyphs" textLength="102" x="6" y="328.4951">advanced user</text><path d="M108.323,274.763 C122.132,270.582 136.777,266.147 149.438,262.314 " fill="none" style="stroke: #A80036; stroke-width: 1.0;"/><polygon fill="none" points="147.749,255.511,168.919,256.415,151.806,268.91,147.749,255.511" style="stroke: #A80036; stroke-width: 1.0;"/><path d="M78.1637,163.031 C98.4714,180.183 130.046,206.852 153.334,226.521 " fill="none" style="stroke: #A80036; stroke-width: 1.0;"/><polygon fill="none" points="158.113,221.395,168.875,239.648,149.079,232.09,158.113,221.395" style="stroke: #A80036; stroke-width: 1.0;"/><path d="M200.212,250.534 C223.958,248.168 273.115,243.27 322.805,238.318 " fill="none" style="stroke: #A80036; stroke-width: 1.0;"/><polygon fill="#A80036" points="327.925,237.808,318.5718,234.7229,322.9498,238.3052,319.3674,242.6832,327.925,237.808" style="stroke: #A80036; stroke-width: 1.0;"/><path d="M200.263,259.029 C210.881,263.916 225.628,270.36 239,275 C267.12,284.757 297.641,293.898 326.925,301.983 " fill="none" style="stroke: #A80036; stroke-width: 1.0;"/><polygon fill="#A80036" points="331.994,303.375,324.3748,297.1341,327.1726,302.0507,322.256,304.8484,331.994,303.375" style="stroke: #A80036; stroke-width: 1.0;"/><path d="M189.528,293.527 C195.04,326.68 208.092,371.639 239,397 C279.788,430.468 338.964,439 386.739,439.41 " fill="none" style="stroke: #A80036; stroke-width: 1.0;"/><polygon fill="#A80036" points="391.915,439.423,382.9253,435.3999,386.915,439.4101,382.9047,443.3998,391.915,439.423" style="stroke: #A80036; stroke-width: 1.0;"/><path d="M87.89,331.717 C120.203,373.471 175.661,436.099 239,469 C276.152,488.298 320.801,498.6766 360.669,504.2004 " fill="none" style="stroke: #A80036; stroke-width: 1.0;"/><polygon fill="#A80036" points="366.009,504.9154,357.6187,499.7576,361.0531,504.2525,356.5582,507.6869,366.009,504.9154" style="stroke: #A80036; stroke-width: 1.0;"/><path d="M571.292,508.2472 C643.043,507.0236 737.262,505.417 802.448,504.3054 " fill="none" style="stroke: #A80036; stroke-width: 1.0; stroke-dasharray: 7.0,7.0;"/><polygon fill="#A80036" points="807.483,504.2195,798.4158,500.3744,802.4837,504.3052,798.5529,508.3732,807.483,504.2195" style="stroke: #A80036; stroke-width: 1.0;"/><text fill="#000000" font-family="sans-serif" font-size="13" lengthAdjust="spacingAndGlyphs" textLength="45" x="703" y="501.0669">include</text><path d="M545.23,494.6726 C617.522,480.2319 725.406,458.681 798.807,444.019 " fill="none" style="stroke: #A80036; stroke-width: 1.0; stroke-dasharray: 7.0,7.0;"/><polygon fill="#A80036" points="804.032,442.975,794.4232,440.814,799.1287,443.9537,795.989,448.6592,804.032,442.975" style="stroke: #A80036; stroke-width: 1.0;"/><text fill="#000000" font-family="sans-serif" font-size="13" lengthAdjust="spacingAndGlyphs" textLength="45" x="703" y="450.0669">include</text><path d="M78.1063,138.361 C94.1187,132.548 117.216,124.761 138,120 C226.318,99.769 330.215,87.404 397.148,80.881 " fill="none" style="stroke: #A80036; stroke-width: 1.0;"/><polygon fill="#A80036" points="402.303,80.383,392.9597,77.2681,397.3262,80.8644,393.7299,85.2309,402.303,80.383" style="stroke: #A80036; stroke-width: 1.0;"/><path d="M78.2576,145.752 C136.065,145.044 303.746,142.992 398.755,141.829 " fill="none" style="stroke: #A80036; stroke-width: 1.0;"/><polygon fill="#A80036" points="403.784,141.768,394.7355,137.8789,398.7844,141.8294,394.8338,145.8783,403.784,141.768" style="stroke: #A80036; stroke-width: 1.0;"/><path d="M406.429,136.608 C357.76,135.909 289.257,141.657 239,173 C223.46,182.691 211.364,198.747 202.636,213.862 " fill="none" style="stroke: #A80036; stroke-width: 1.0;"/><polygon fill="#A80036" points="200.035,218.515,207.9183,212.6114,202.475,214.1508,200.9356,208.7074,200.035,218.515" style="stroke: #A80036; stroke-width: 1.0;"/></g></svg>