<?xml version="1.0" encoding="UTF-8" standalone="no"?><svg xmlns="http://www.w3.org/2000/svg" xmlns:xlink="http://www.w3.org/1999/xlink" contentScriptType="application/ecmascript" contentStyleType="text/css" height="599px" preserveAspectRatio="none" style="width:1181px;height:599px;" version="1.1" viewBox="0 0 1181 599" width="1181px" zoomAndPan="magnify"><defs><filter height="300%" id="f1magz2g48kfvy" width="300%" x="-1" y="-1"><feGaussianBlur result="blurOut" stdDeviation="2.0"/><feColorMatrix in="blurOut" result="blurOut2" type="matrix" values="0 0 0 0 0 0 0 0 0 0 0 0 0 0 0 0 0 0 .4 0"/><feOffset dx="4.0" dy="4.0" in="blurOut2" result="blurOut3"/><feBlend in="SourceGraphic" in2="blurOut3" mode="normal"/></filter></defs><g><!--cluster healing-db--><rect fill="#FFFFFF" filter="url(#f1magz2g48kfvy)" height="564" style="stroke: #000000; stroke-width: 1.5;" width="923" x="247" y="24"/><text fill="#000000" font-family="sans-serif" font-size="14" font-weight="bold" lengthAdjust="spacingAndGlyphs" textLength="83" x="667" y="38.9951">healing-db</text><ellipse cx="467.6152" cy="263.123" fill="#FEFECE" filter="url(#f1magz2g48kfvy)" rx="153.6152" ry="33.123" style="stroke: #A80036; stroke-width: 1.5;"/><text fill="#000000" font-family="sans-serif" font-size="14" lengthAdjust="spacingAndGlyphs" textLength="290" x="322.6152" y="267.7715">Heilung mit einer Erkrankung verknuepfen</text><ellipse cx="467.6586" cy="374.8317" fill="#FEFECE" filter="url(#f1magz2g48kfvy)" rx="204.6586" ry="43.3317" style="stroke: #A80036; stroke-width: 1.5;"/><text fill="#000000" font-family="sans-serif" font-size="14" lengthAdjust="spacingAndGlyphs" textLength="395" x="270.1586" y="379.4802">Freitext zu einer Heilung oder einer Erkrankung eingeben</text><ellipse cx="467.5624" cy="472.0125" fill="#FEFECE" filter="url(#f1magz2g48kfvy)" rx="80.5624" ry="18.5125" style="stroke: #A80036; stroke-width: 1.5;"/><text fill="#000000" font-family="sans-serif" font-size="14" lengthAdjust="spacingAndGlyphs" textLength="132" x="401.5624" y="476.6609">Freitext diskutieren</text><ellipse cx="467.5751" cy="549.215" fill="#FEFECE" filter="url(#f1magz2g48kfvy)" rx="104.0751" ry="23.215" style="stroke: #A80036; stroke-width: 1.5;"/><text fill="#000000" font-family="sans-serif" font-size="14" lengthAdjust="spacingAndGlyphs" textLength="185" x="375.0751" y="553.8635">Verknuepfung bestaetigen</text><ellipse cx="966.6576" cy="545.9315" fill="#FEFECE" filter="url(#f1magz2g48kfvy)" rx="72.6576" ry="16.9315" style="stroke: #A80036; stroke-width: 1.5;"/><text fill="#000000" font-family="sans-serif" font-size="14" lengthAdjust="spacingAndGlyphs" textLength="113" x="910.1576" y="550.5799">user aufwehrten</text><ellipse cx="966.3822" cy="471.0764" fill="#FEFECE" filter="url(#f1magz2g48kfvy)" rx="100.8822" ry="22.5764" style="stroke: #A80036; stroke-width: 1.5;"/><text fill="#000000" font-family="sans-serif" font-size="14" lengthAdjust="spacingAndGlyphs" textLength="178" x="877.3822" y="475.7249">verknuepfung aufwehrten</text><ellipse cx="467.7423" cy="86.0995" fill="#FEFECE" filter="url(#f1magz2g48kfvy)" rx="64.7423" ry="27.0995" style="stroke: #A80036; stroke-width: 1.5;"/><text fill="#000000" font-family="sans-serif" font-size="14" lengthAdjust="spacingAndGlyphs" textLength="104" x="415.7423" y="85.9032">inhalte sperren</text><line style="stroke: #A80036; stroke-width: 1.0;" x1="404.4265" x2="531.0582" y1="89.2049" y2="89.2049"/><text fill="#000000" font-family="sans-serif" font-size="14" lengthAdjust="spacingAndGlyphs" textLength="25" x="455.2423" y="106.2">troll</text><path d="M779,66 L779,82 L532.203,86 L779,90 L779,106.2656 A0,0 0 0 0 779,106.2656 L1154,106.2656 A0,0 0 0 0 1154,106.2656 L1154,76 L1144,66 L779,66 A0,0 0 0 0 779,66 " fill="#FBFB77" filter="url(#f1magz2g48kfvy)" style="stroke: #A80036; stroke-width: 1.0;"/><path d="M1144,66 L1144,76 L1154,76 L1144,66 " fill="#FBFB77" style="stroke: #A80036; stroke-width: 1.0;"/><text fill="#000000" font-family="sans-serif" font-size="13" lengthAdjust="spacingAndGlyphs" textLength="354" x="785" y="83.0669">condition:(Wenn user mehrfach falsche inhalte einstellt)</text><text fill="#000000" font-family="sans-serif" font-size="13" lengthAdjust="spacingAndGlyphs" textLength="130" x="785" y="98.1997">extension point: troll</text><ellipse cx="467.3339" cy="180.0668" fill="#FEFECE" filter="url(#f1magz2g48kfvy)" rx="63.3339" ry="15.0668" style="stroke: #A80036; stroke-width: 1.5;"/><text fill="#000000" font-family="sans-serif" font-size="14" lengthAdjust="spacingAndGlyphs" textLength="89" x="422.8339" y="184.7152">user sperren</text><!--entity user--><ellipse cx="184.5" cy="293.5" fill="#FEFECE" filter="url(#f1magz2g48kfvy)" rx="8" ry="8" style="stroke: #A80036; stroke-width: 2.0;"/><path d="M184.5,301.5 L184.5,328.5 M171.5,309.5 L197.5,309.5 M184.5,328.5 L171.5,343.5 M184.5,328.5 L197.5,343.5 " fill="none" filter="url(#f1magz2g48kfvy)" style="stroke: #A80036; stroke-width: 2.0;"/><text fill="#000000" font-family="sans-serif" font-size="14" lengthAdjust="spacingAndGlyphs" textLength="31" x="169" y="363.4951">user</text><!--entity admin--><ellipse cx="57" cy="284.5" fill="#FEFECE" filter="url(#f1magz2g48kfvy)" rx="8" ry="8" style="stroke: #A80036; stroke-width: 2.0;"/><path d="M57,292.5 L57,319.5 M44,300.5 L70,300.5 M57,319.5 L44,334.5 M57,319.5 L70,334.5 " fill="none" filter="url(#f1magz2g48kfvy)" style="stroke: #A80036; stroke-width: 2.0;"/><text fill="#000000" font-family="sans-serif" font-size="14" lengthAdjust="spacingAndGlyphs" textLength="42" x="36" y="354.4951">admin</text><!--entity pro--><ellipse cx="57" cy="423.5" fill="#FEFECE" filter="url(#f1magz2g48kfvy)" rx="8" ry="8" style="stroke: #A80036; stroke-width: 2.0;"/><path d="M57,431.5 L57,458.5 M44,439.5 L70,439.5 M57,458.5 L44,473.5 M57,458.5 L70,473.5 " fill="none" filter="url(#f1magz2g48kfvy)" style="stroke: #A80036; stroke-width: 2.0;"/><text fill="#000000" font-family="sans-serif" font-size="14" lengthAdjust="spacingAndGlyphs" textLength="102" x="6" y="493.4951">advanced user</text><!--link pro to user--><path d="M98.3998,413.152 C116.739,394.155 138.008,372.123 154.696,354.837 " fill="none" id="pro-user" style="stroke: #A80036; stroke-width: 1.0;"/><polygon fill="none" points="149.854,349.774,168.781,340.247,159.926,359.498,149.854,349.774" style="stroke: #A80036; stroke-width: 1.0;"/><!--link admin to user--><path d="M78.1637,317.446 C97.1836,318.81 126.087,320.883 148.809,322.512 " fill="none" id="admin-user" style="stroke: #A80036; stroke-width: 1.0;"/><polygon fill="none" points="149.427,315.538,168.875,323.951,148.426,329.503,149.427,315.538" style="stroke: #A80036; stroke-width: 1.0;"/><!--link user to Heilung mit einer Erkrankung verknuepfen--><path d="M200.212,321.754 C229.045,315.392 295.341,300.765 354.566,287.697 " fill="none" id="user-Heilung mit einer Erkrankung verknuepfen" style="stroke: #A80036; stroke-width: 1.0;"/><polygon fill="#A80036" points="359.543,286.599,349.8926,284.6317,354.6604,287.6761,351.616,292.4438,359.543,286.599" style="stroke: #A80036; stroke-width: 1.0;"/><!--link user to Freitext zu einer Heilung oder einer Erkrankung eingeben--><path d="M200.212,327.618 C221.144,331.342 261.82,338.58 305.201,346.299 " fill="none" id="user-Freitext zu einer Heilung oder einer Erkrankung eingeben" style="stroke: #A80036; stroke-width: 1.0;"/><polygon fill="#A80036" points="310.228,347.194,302.0677,341.6796,305.3053,346.3183,300.6666,349.5559,310.228,347.194" style="stroke: #A80036; stroke-width: 1.0;"/><!--link user to Freitext diskutieren--><path d="M195.224,366.59 C203.028,390.606 216.51,419.28 239,436 C280.49,466.846 338.098,475.718 384.962,476.943 " fill="none" id="user-Freitext diskutieren" style="stroke: #A80036; stroke-width: 1.0;"/><polygon fill="#A80036" points="390.041,477.047,381.1252,472.8627,385.0421,476.9441,380.9606,480.861,390.041,477.047" style="stroke: #A80036; stroke-width: 1.0;"/><!--link pro to Verknuepfung bestaetigen--><path d="M108.328,471.304 C144.434,482.614 194.383,497.479 239,508 C284.043,518.6216 334.666,527.9931 376.704,535.0857 " fill="none" id="pro-Verknuepfung bestaetigen" style="stroke: #A80036; stroke-width: 1.0;"/><polygon fill="#A80036" points="381.787,535.9393,373.5743,530.5032,376.8561,535.1107,372.2486,538.3926,381.787,535.9393" style="stroke: #A80036; stroke-width: 1.0;"/><!--link Verknuepfung bestaetigen to user aufwehrten--><path d="M571.479,548.3784 C665.982,547.808 803.84,546.9758 888.935,546.4622 " fill="none" id="Verknuepfung bestaetigen-user aufwehrten" style="stroke: #A80036; stroke-width: 1.0; stroke-dasharray: 7.0,7.0;"/><polygon fill="#A80036" points="893.957,546.4318,884.9332,542.4859,888.9571,546.4618,884.9812,550.4857,893.957,546.4318" style="stroke: #A80036; stroke-width: 1.0;"/><text fill="#000000" font-family="sans-serif" font-size="13" lengthAdjust="spacingAndGlyphs" textLength="45" x="703" y="543.0669">include</text><!--link Verknuepfung bestaetigen to verknuepfung aufwehrten--><path d="M552.809,535.7684 C643.321,521.5633 786.435,499.103 878.117,484.714 " fill="none" id="Verknuepfung bestaetigen-verknuepfung aufwehrten" style="stroke: #A80036; stroke-width: 1.0; stroke-dasharray: 7.0,7.0;"/><polygon fill="#A80036" points="883.261,483.907,873.7494,481.3516,878.3215,484.6826,874.9905,489.2547,883.261,483.907" style="stroke: #A80036; stroke-width: 1.0;"/><text fill="#000000" font-family="sans-serif" font-size="13" lengthAdjust="spacingAndGlyphs" textLength="45" x="703" y="501.0669">include</text><!--link admin to UC1--><path d="M78.2375,290.396 C108.994,253.223 171.144,184.649 239,147 C289.369,119.053 353.191,103.392 400.408,94.959 " fill="none" id="admin-UC1" style="stroke: #A80036; stroke-width: 1.0;"/><polygon fill="#A80036" points="405.502,94.065,395.9468,91.6779,400.577,94.9277,397.3272,99.5579,405.502,94.065" style="stroke: #A80036; stroke-width: 1.0;"/><!--link user sperren to UC1--><path d="M467.5,164.897 C467.5,152.401 467.5,134.21 467.5,118.443 " fill="none" id="user sperren-UC1" style="stroke: #A80036; stroke-width: 1.0; stroke-dasharray: 7.0,7.0;"/><polygon fill="#A80036" points="467.5,113.201,463.5,122.201,467.5,118.201,471.5,122.201,467.5,113.201" style="stroke: #A80036; stroke-width: 1.0;"/><text fill="#000000" font-family="sans-serif" font-size="13" lengthAdjust="spacingAndGlyphs" textLength="51" x="430.5" y="143.5669">extends</text><!--link user sperren to user--><path d="M411.484,172.75 C361.035,169.254 287.071,172.495 239,212 C230.638,218.872 235.229,225.037 231,235 C222.559,254.888 211.683,276.514 202.682,293.582 " fill="none" id="user sperren-user" style="stroke: #A80036; stroke-width: 1.0;"/><polygon fill="#A80036" points="200.196,298.27,207.946,292.1924,202.5383,293.8526,200.8781,288.4448,200.196,298.27" style="stroke: #A80036; stroke-width: 1.0;"/><!--
@startuml
skinparam packageStyle rectangle
left to right direction

actor user
actor admin
:advanced user: as pro
pro - -|> user
admin - -|> user

rectangle healing-db {
  user - -> (Heilung mit einer Erkrankung verknuepfen)
  user - -> (Freitext zu einer Heilung oder einer Erkrankung eingeben)
  user - -> (Freitext diskutieren)

  pro - -> (Verknuepfung bestaetigen)

  (Verknuepfung bestaetigen) ..> (user aufwehrten) : include
  (Verknuepfung bestaetigen) ..> (verknuepfung aufwehrten) : include

  usecase UC1 as "inhalte sperren
  - -
  troll"

  note right of (UC1)
    condition:(Wenn user mehrfach falsche inhalte einstellt)
    extension point: troll
  end note

  admin - -> (UC1)
  (user sperren) .> (UC1) : extends
  (user sperren) - -> user
}
@enduml

PlantUML version 1.2018.02(Fri Mar 09 17:20:44 UTC 2018)
(GPL source distribution)
Java Runtime: Java(TM) SE Runtime Environment
JVM: Java HotSpot(TM) 64-Bit Server VM
Java Version: 1.7.0_25-b15
Operating System: Linux
Default Encoding: UTF-8
Language: en
Country: US
--></g></svg>